<?xml version="1.0" encoding="utf-8"?>
<!-- Generator: Adobe Illustrator 17.1.0, SVG Export Plug-In . SVG Version: 6.00 Build 0)  -->
<!DOCTYPE svg PUBLIC "-//W3C//DTD SVG 1.1//EN" "http://www.w3.org/Graphics/SVG/1.1/DTD/svg11.dtd">
<svg version="1.1" xmlns="http://www.w3.org/2000/svg" xmlns:xlink="http://www.w3.org/1999/xlink" x="0px" y="0px"
	 viewBox="0 0 515.4 515.5" enable-background="new 0 0 515.4 515.5" xml:space="preserve">
<g id="Layer_2">
</g>
<g id="Layer_1">
	<g id="Layer_5_1_">
		<g>
			<g>
				<path fill="#FFFFFF" d="M365.4,333H150c-3.9,0-7.2-3.2-7.2-7.2v-7.4h229.7v7.4C372.6,329.8,369.4,333,365.4,333z"/>
				<path fill="#FFFFFF" d="M352.1,191.2H163.3c-1.4,0-2.6,1.2-2.6,2.6v112.7c0,1.4,1.2,2.6,2.6,2.6h188.9c1.4,0,2.6-1.2,2.6-2.6
					V193.8C354.8,192.4,353.6,191.2,352.1,191.2z M257.7,194.4c1.6,0,3,1.4,3,3s-1.4,3-3,3c-1.6,0-3-1.4-3-3
					S256.1,194.4,257.7,194.4z M341.5,296H173.8v-91.6h167.7V296z"/>
				<g>
					<circle fill="#FFFFFF" cx="207.5" cy="236.3" r="8.2"/>
					<circle fill="#FFFFFF" cx="307.9" cy="236.3" r="8.2"/>
					<path fill="#FFFFFF" d="M257.7,283.7c26.5,0,49-11.6,56.8-27.6c0.8-1.8-0.5-3.9-2.5-3.9H203.4c-2,0-3.3,2.1-2.5,3.9
						C208.7,272.1,231.2,283.7,257.7,283.7z"/>
				</g>
			</g>
			<g>
				<path fill="#39B564" d="M92.6,136.5c7.8,0,12.9,3.4,12.9,8.7c0,3.7-2.3,6.7-6,7.7c4.4,0.8,7.2,4.3,7.2,8.9c0,6-5.2,9.7-13.5,9.7
					H76v-35.1L92.6,136.5L92.6,136.5z M84.9,150.5h7.2c2.6,0,4.3-1.4,4.3-3.6c0-2.3-1.7-3.6-4.3-3.6h-7.2V150.5z M84.9,164.7h7.2
					c3.3,0,5.4-1.4,5.4-3.9c0-2.3-2.1-3.8-5.4-3.8h-7.2V164.7z"/>
				<path fill="#39B564" d="M120.8,143.5v7h16.7v7h-16.7v7.1h19.1v7h-28v-35.1h27.5v7L120.8,143.5L120.8,143.5z"/>
				<path fill="#39B564" d="M172.9,140l-3.4,7c-3.7-2.1-8.4-3.6-11.2-3.6c-2.3,0-3.9,0.8-3.9,2.5c0,6.1,18.5,2.6,18.5,15.3
					c0,7-6.2,10.7-14.1,10.7c-5.9,0-11.8-2.2-16.1-5.6l3.4-6.9c3.6,3.2,9,5.2,12.7,5.2c2.8,0,4.5-1,4.5-3c0-6.2-18.5-2.5-18.5-15
					c0-6.5,5.6-10.6,14-10.6C164.1,136.1,169.3,137.7,172.9,140z"/>
				<path fill="#39B564" d="M194.1,143.7v27.9h-8.9v-27.9h-10.5v-7.2h30v7.2H194.1z"/>
				<path fill="#39B564" d="M229,143.5v8.1h15.7v7H229v12.9h-8.9v-35.1h26v7L229,143.5L229,143.5z"/>
				<path fill="#39B564" d="M266.3,161.7H266h-6.7v9.9h-8.9v-35.1H266c9.3,0,14.6,4.4,14.6,12.2c0,5.4-2.3,9.2-6.3,11.3l7.4,11.6
					h-10.1L266.3,161.7z M266,154.7c3.9,0,6.1-1.9,6.1-5.6c0-3.6-2.3-5.5-6.1-5.5h-6.7v11.2L266,154.7L266,154.7z"/>
				<path fill="#39B564" d="M286.6,171.6v-35.1h8.9v35.1H286.6z"/>
				<path fill="#39B564" d="M311.5,143.5v7h16.7v7h-16.7v7.1h19.1v7h-28v-35.1H330v7L311.5,143.5L311.5,143.5z"/>
				<path fill="#39B564" d="M360.8,171.6L344.7,150v21.6h-8.4v-35.1h7.8l16.2,21.6v-21.6h8.3v35.1H360.8z"/>
				<path fill="#39B564" d="M390.8,136.5c11,0,18.6,7.1,18.6,17.5c0,10.4-7.7,17.5-19,17.5h-14.7v-35.1H390.8z M384.6,164.5h6.3
					c5.4,0,9.4-4.2,9.4-10.4c0-6.2-4.1-10.5-9.8-10.5h-6V164.5z"/>
				<path fill="#39B564" d="M441.4,140l-3.4,7c-3.7-2.1-8.4-3.6-11.2-3.6c-2.3,0-3.9,0.8-3.9,2.5c0,6.1,18.5,2.6,18.5,15.3
					c0,7-6.2,10.7-14.1,10.7c-5.9,0-11.8-2.2-16.1-5.6l3.4-6.9c3.6,3.2,9,5.2,12.7,5.2c2.8,0,4.5-1,4.5-3c0-6.2-18.5-2.5-18.5-15
					c0-6.5,5.6-10.6,14-10.6C432.6,136.1,437.8,137.7,441.4,140z"/>
			</g>
			<g>
				<path fill="#FFFFFF" d="M456.2,130.9H61.4c-1.1,0-2-0.9-2-2c0-1.1,0.9-2,2-2h394.8c1.1,0,2,0.9,2,2
					C458.2,130,457.3,130.9,456.2,130.9z"/>
			</g>
			<g>
				<path fill="#FFFFFF" d="M456.2,182.8H61.4c-1.1,0-2-0.9-2-2s0.9-2,2-2h394.8c1.1,0,2,0.9,2,2S457.3,182.8,456.2,182.8z"/>
			</g>
			<path fill="none" d="M339.4,114.2l-1.9,3.2c-0.4,0.6-1,1-1.7,1c-0.3,0-0.6-0.1-1-0.3c-1-0.5-1.3-1.7-0.7-2.7l1.8-3.2
				c-4.5-2.5-9.2-4.7-14-6.7c-6.9-2.9-13.9-5.4-21.1-7.3c-0.1,0-0.3,0-0.4-0.1c-0.1-0.1-0.3-0.1-0.4-0.1
				c-13.7-3.6-27.9-5.4-42.3-5.4c-0.3,0-0.6,0-1,0v3.7c0,1.1-0.9,2-2,2s-2-0.9-2-2v-3.6c-12.8,0.4-25.3,2.2-37.4,5.4
				c-0.1,0.1-0.3,0.1-0.4,0.1c-0.1,0.1-0.3,0.1-0.4,0.1c-7.2,1.9-14.2,4.3-21.1,7.3c-6.6,2.8-13,6-19.2,9.6l1.9,3.2
				c0.5,1,0.2,2.1-0.7,2.7c-0.3,0.2-0.6,0.3-1,0.3c-0.7,0-1.4-0.3-1.7-1l-1.8-3.2c-5.7,3.5-11.2,7.4-16.4,11.6h206.4
				C354.1,123.4,346.9,118.6,339.4,114.2z"/>
			<path fill="none" d="M108.1,349.8h7.9c-0.7-1.1-1.4-2.2-2.1-3.4L108.1,349.8z"/>
			<path fill="none" d="M397.9,337.5c-1-0.5-1.3-1.7-0.7-2.7c0.5-1,1.7-1.3,2.7-0.7l3.2,1.8c2.5-4.5,4.7-9.2,6.7-14
				c2.9-6.9,5.4-13.9,7.3-21.1c0-0.1,0-0.3,0.1-0.5c0.1-0.1,0.1-0.3,0.1-0.4c3.6-13.7,5.4-27.9,5.4-42.3c0-0.3,0-0.6,0-1H419
				c-1.1,0-2-0.9-2-2s0.9-2,2-2h3.6c-0.4-12.8-2.2-25.3-5.4-37.4c-0.1-0.1-0.1-0.3-0.1-0.4c-0.1-0.1-0.1-0.3-0.1-0.5
				c-1.9-7.2-4.3-14.2-7.3-21.1c-1.8-4.3-3.8-8.5-6-12.6H118c-0.4,0.5-1,0.7-1.5,0.7c-0.3,0-0.6-0.1-1-0.3l-0.8-0.5h-3.1
				c-2.1,4.1-4.1,8.3-6,12.6c-2.9,6.9-5.4,13.9-7.3,21.1c0,0.1,0,0.3-0.1,0.5c-0.1,0.1-0.1,0.3-0.1,0.4c-3.6,13.7-5.5,27.9-5.5,42.3
				c0,0.3,0,0.6,0,1h3.7c1.1,0,2,0.9,2,2c0,1.1-0.9,2-2,2h-3.6c0.4,12.8,2.2,25.3,5.4,37.4c0.1,0.1,0.1,0.3,0.1,0.4
				c0.1,0.1,0.1,0.3,0.1,0.5c1.9,7.2,4.3,14.2,7.3,21.1c2.8,6.6,6,13,9.6,19.2l3.2-1.9c1-0.5,2.1-0.2,2.7,0.7c0.5,1,0.2,2.1-0.7,2.7
				l-3.2,1.8c1.1,1.8,2.3,3.6,3.4,5.3h273.9c2.3-3.4,4.5-6.9,6.5-10.4L397.9,337.5z"/>
			<path fill="none" d="M179.5,403.1c4.5,2.5,9.2,4.7,14,6.7c6.9,2.9,13.9,5.4,21.1,7.3c0.1,0,0.3,0,0.5,0.1
				c0.1,0.1,0.3,0.1,0.4,0.1c13.7,3.6,27.9,5.4,42.3,5.4c0.3,0,0.6,0,1,0v-3.7c0-1.1,0.9-2,2-2c1.1,0,2,0.9,2,2v3.6
				c12.8-0.4,25.3-2.2,37.4-5.4c0.1-0.1,0.3-0.1,0.4-0.1c0.1-0.1,0.3-0.1,0.5-0.1c7.2-1.9,14.2-4.3,21.1-7.3c5.6-2.4,11-5.1,16.3-8
				h-158L179.5,403.1z"/>
			<path fill="#FFFFFF" d="M200.5,52c0.3,0.9,1,1.5,1.9,1.5c0.2,0,0.3,0,0.5-0.1c1-0.3,1.7-1.4,1.4-2.4l-3.1-11.5
				c-0.3-1-1.4-1.7-2.4-1.4c-1,0.3-1.7,1.4-1.4,2.4L200.5,52z"/>
			<path fill="#FFFFFF" d="M105.3,108.1c0.4,0.4,0.9,0.6,1.4,0.6c0.5,0,1-0.2,1.4-0.6c0.8-0.8,0.8-2,0-2.8l-8.4-8.4
				c-0.8-0.8-2-0.8-2.8,0c-0.8,0.8-0.8,2,0,2.8L105.3,108.1z"/>
			<path fill="#FFFFFF" d="M51,204.3c0.2,0.1,0.3,0.1,0.5,0.1c0.9,0,1.7-0.6,1.9-1.5c0.3-1-0.3-2.1-1.4-2.4l-11.5-3
				c-1-0.3-2.1,0.3-2.4,1.4c-0.3,1,0.3,2.1,1.4,2.4L51,204.3z"/>
			<path fill="#FFFFFF" d="M51,311l-11.5,3c-1,0.3-1.7,1.4-1.4,2.4c0.3,0.9,1,1.5,1.9,1.5c0.2,0,0.3,0,0.5-0.1l11.5-3.1
				c1-0.3,1.7-1.4,1.4-2.4C53.2,311.4,52.1,310.7,51,311z"/>
			<path fill="#FFFFFF" d="M105.3,407.3l-8.4,8.4c-0.8,0.8-0.8,2,0,2.8c0.4,0.4,0.9,0.6,1.4,0.6c0.5,0,1-0.2,1.4-0.6l8.4-8.4
				c0.8-0.8,0.8-2,0-2.8C107.4,406.5,106.1,406.5,105.3,407.3z"/>
			<path fill="#FFFFFF" d="M203,462c-1-0.3-2.1,0.3-2.4,1.4l-3.1,11.5c-0.3,1,0.3,2.1,1.4,2.4c0.2,0.1,0.3,0.1,0.5,0.1
				c0.9,0,1.7-0.6,1.9-1.5l3.1-11.5C204.7,463.3,204,462.2,203,462z"/>
			<path fill="#FFFFFF" d="M314.9,463.4c-0.3-1-1.4-1.7-2.4-1.4c-1,0.3-1.7,1.4-1.4,2.4l3,11.5c0.3,0.9,1,1.5,1.9,1.5
				c0.2,0,0.3,0,0.5-0.1c1-0.3,1.7-1.4,1.4-2.4L314.9,463.4z"/>
			<path fill="#FFFFFF" d="M116.5,181.6c0.6,0,1.2-0.3,1.5-0.7h-3.3l0.8,0.5C115.8,181.5,116.2,181.6,116.5,181.6z"/>
			<path fill="#FFFFFF" d="M170.9,117.3l1.8,3.2c0.4,0.6,1,1,1.7,1c0.3,0,0.6-0.1,1-0.3c1-0.5,1.3-1.7,0.7-2.7l-1.9-3.2
				c6.2-3.6,12.6-6.8,19.2-9.6c6.9-2.9,13.9-5.4,21.1-7.3c0.1,0,0.3,0,0.4-0.1c0.1-0.1,0.3-0.1,0.4-0.1c12.2-3.2,24.7-5.1,37.4-5.4
				v3.6c0,1.1,0.9,2,2,2s2-0.9,2-2v-3.7c0.3,0,0.6,0,1,0c14.4,0,28.6,1.8,42.3,5.4c0.1,0.1,0.3,0.1,0.4,0.1c0.1,0.1,0.3,0.1,0.4,0.1
				c7.2,1.9,14.2,4.3,21.1,7.3c4.8,2,9.5,4.3,14,6.7l-1.8,3.2c-0.5,1-0.2,2.1,0.7,2.7c0.3,0.2,0.6,0.3,1,0.3c0.7,0,1.4-0.3,1.7-1
				l1.9-3.2c7.6,4.3,14.8,9.2,21.6,14.6h6.2c-8-6.9-16.6-12.9-25.8-18.1l4.1-7.3c0.5-1,0.2-2.1-0.7-2.7c-0.9-0.6-2.1-0.2-2.7,0.7
				l-4.2,7.3c-4.7-2.5-9.5-4.9-14.4-6.9c-6.6-2.8-13.3-5.1-20.1-7.1l8.1-30c0.3-1-0.3-2.1-1.4-2.4c-1-0.3-2.1,0.3-2.4,1.4l-8.1,30.1
				c-13.6-3.4-27.6-5.2-41.8-5.2c-0.3,0-0.6,0-1,0v-8.4c0-1.1-0.9-2-2-2s-2,0.9-2,2v8.5c-12.6,0.4-24.9,2.1-36.9,5.1l-8.1-30.2
				c-0.3-1-1.4-1.7-2.4-1.4c-1,0.3-1.7,1.4-1.4,2.4l8.1,30.2c-6.8,1.9-13.5,4.3-20.1,7.1c-6.8,2.8-13.3,6.2-19.6,9.8l-4.1-7.3
				c-0.5-1-1.7-1.3-2.7-0.7c-1,0.5-1.3,1.7-0.7,2.7l4.2,7.3c-7.3,4.5-14.1,9.5-20.7,15h6.2C159.7,124.7,165.2,120.8,170.9,117.3z"/>
			<path fill="#FFFFFF" d="M321.9,409.8c-6.9,2.9-13.9,5.4-21.1,7.3c-0.1,0-0.3,0-0.5,0.1c-0.1,0.1-0.3,0.1-0.4,0.1
				c-12.2,3.2-24.7,5.1-37.4,5.4V419c0-1.1-0.9-2-2-2c-1.1,0-2,0.9-2,2v3.7c-0.3,0-0.6,0-1,0c-14.4,0-28.6-1.8-42.3-5.4
				c-0.1-0.1-0.3-0.1-0.4-0.1c-0.1-0.1-0.3-0.1-0.5-0.1c-7.2-1.9-14.2-4.3-21.1-7.3c-4.8-2-9.5-4.3-14-6.7l0.7-1.3h-10.9
				c1.6,1,3.1,1.9,4.7,2.8l-4.1,7.3c-0.5,1-0.2,2.1,0.7,2.7c0.3,0.2,0.6,0.3,1,0.3c0.7,0,1.4-0.3,1.7-1l4.2-7.3
				c4.7,2.5,9.5,4.9,14.4,6.9c6.6,2.8,13.3,5.1,20.1,7.1l-8,30.1c-0.3,1,0.3,2.1,1.4,2.4c0.2,0.1,0.3,0.1,0.5,0.1
				c0.9,0,1.7-0.6,1.9-1.5l8.1-30.2c13.6,3.4,27.6,5.2,41.8,5.2c0.3,0,0.6,0,1,0v8.5c0,1.1,0.9,2,2,2c1.1,0,2-0.9,2-2v-8.5
				c12.6-0.4,24.9-2.1,36.9-5.1l8.1,30.2c0.3,0.9,1,1.5,1.9,1.5c0.2,0,0.3,0,0.5-0.1c1-0.3,1.7-1.4,1.4-2.4l-8.1-30.2
				c6.8-1.9,13.5-4.3,20.1-7.1c6.8-2.8,13.3-6.2,19.6-9.8l4.1,7.3c0.4,0.6,1,1,1.7,1c0.3,0,0.6-0.1,1-0.3c1-0.5,1.3-1.7,0.7-2.7
				l-4.1-7.1h-8.4C333,404.7,327.6,407.4,321.9,409.8z"/>
			<path fill="#FFFFFF" d="M409.8,193.5c2.9,6.9,5.4,13.9,7.3,21.1c0,0.1,0,0.3,0.1,0.5c0.1,0.1,0.1,0.3,0.1,0.4
				c3.2,12.2,5.1,24.7,5.4,37.4H419c-1.1,0-2,0.9-2,2s0.9,2,2,2h3.7c0,0.3,0,0.6,0,1c0,14.4-1.8,28.6-5.4,42.3
				c-0.1,0.1-0.1,0.3-0.1,0.4c-0.1,0.1-0.1,0.3-0.1,0.5c-1.9,7.2-4.3,14.2-7.3,21.1c-2,4.8-4.3,9.5-6.7,14l-3.2-1.8
				c-1-0.5-2.1-0.2-2.7,0.7c-0.5,1-0.2,2.1,0.7,2.7l3.2,1.9c-2,3.6-4.2,7.1-6.5,10.4h4.7c1.8-2.8,3.5-5.6,5.2-8.5l7.3,4.1
				c0.3,0.2,0.6,0.3,1,0.3c0.7,0,1.4-0.3,1.7-1c0.5-1,0.2-2.1-0.7-2.7l-7.3-4.2c2.5-4.7,4.9-9.5,6.9-14.4c2.8-6.6,5.1-13.3,7.1-20.1
				l30.1,8c0.2,0.1,0.3,0.1,0.5,0.1c0.9,0,1.7-0.6,1.9-1.5c0.3-1-0.3-2.1-1.4-2.4l-30.2-8.1c3.4-13.6,5.2-27.6,5.2-41.8
				c0-0.3,0-0.6,0-1h8.4c1.1,0,2-0.9,2-2s-0.9-2-2-2h-8.5c-0.4-12.6-2.1-24.9-5.1-36.9l30.2-8.1c1-0.3,1.7-1.4,1.4-2.4
				c-0.3-1-1.4-1.7-2.4-1.4l-30.2,8.1c-1.9-6.8-4.3-13.5-7.1-20.1c-1.6-3.8-3.3-7.4-5.2-11.1h-4.5C406,185,408,189.1,409.8,193.5z"
				/>
			<path fill="#FFFFFF" d="M400.7,117.5c0.8-0.8,0.8-2,0-2.8c-0.8-0.8-2-0.8-2.8,0l-14.2,14.2h5.6L400.7,117.5z"/>
			<path fill="#FFFFFF" d="M113.8,346.5c0.7,1.1,1.4,2.3,2.1,3.4h4.7c-1.2-1.7-2.3-3.6-3.4-5.3l3.2-1.8c1-0.5,1.3-1.7,0.7-2.7
				c-0.5-1-1.7-1.3-2.7-0.7l-3.2,1.9c-3.6-6.2-6.8-12.6-9.6-19.2c-2.9-6.9-5.4-13.9-7.3-21.1c0-0.1,0-0.3-0.1-0.5
				c-0.1-0.1-0.1-0.3-0.1-0.4c-3.2-12.2-5.1-24.7-5.4-37.4h3.6c1.1,0,2-0.9,2-2c0-1.1-0.9-2-2-2h-3.7c0-0.3,0-0.6,0-1
				c0-14.4,1.8-28.6,5.5-42.3c0.1-0.1,0.1-0.3,0.1-0.4c0.1-0.1,0.1-0.3,0.1-0.5c1.9-7.2,4.3-14.2,7.3-21.1c1.8-4.3,3.8-8.5,6-12.6
				h-4.5c-1.8,3.6-3.6,7.3-5.2,11.1c-2.8,6.6-5.1,13.3-7.1,20.1L64.7,204c-1-0.3-2.1,0.3-2.4,1.4c-0.3,1,0.3,2.1,1.4,2.4l30.2,8.1
				c-3.4,13.6-5.2,27.6-5.2,41.8c0,0.3,0,0.6,0,1h-8.5c-1.1,0-2,0.9-2,2c0,1.1,0.9,2,2,2h8.5c0.4,12.6,2.1,24.9,5.1,36.9l-30.2,8.1
				c-1,0.3-1.7,1.4-1.4,2.4c0.3,0.9,1,1.5,1.9,1.5c0.2,0,0.3,0,0.5-0.1l30.2-8.1c1.9,6.8,4.3,13.5,7.1,20.1
				c2.8,6.8,6.2,13.3,9.8,19.6l-7.3,4.1c-0.9,0.5-1.2,1.6-0.8,2.6h4.3L113.8,346.5z"/>
			<path fill="#FFFFFF" d="M117.5,114.7c-0.8-0.8-2-0.8-2.8,0c-0.8,0.8-0.8,2,0,2.8l11.4,11.4h5.6L117.5,114.7z"/>
			<path fill="#FFFFFF" d="M410,407.3c-0.8-0.8-2-0.8-2.8,0s-0.8,2,0,2.8l8.4,8.4c0.4,0.4,0.9,0.6,1.4,0.6s1-0.2,1.4-0.6
				c0.8-0.8,0.8-2,0-2.8L410,407.3z"/>
			<path fill="#FFFFFF" d="M474.9,317.9c0.2,0.1,0.3,0.1,0.5,0.1c0.9,0,1.7-0.6,1.9-1.5c0.3-1-0.3-2.1-1.4-2.4l-11.5-3.1
				c-1-0.3-2.1,0.3-2.4,1.4c-0.3,1,0.3,2.1,1.4,2.4L474.9,317.9z"/>
			<path fill="#FFFFFF" d="M474.9,197.5l-11.5,3.1c-1,0.3-1.7,1.4-1.4,2.4c0.3,0.9,1,1.5,1.9,1.5c0.2,0,0.3,0,0.5-0.1l11.5-3.1
				c1-0.3,1.7-1.4,1.4-2.4C477,197.8,475.9,197.2,474.9,197.5z"/>
			<path fill="#FFFFFF" d="M408.6,108.7c0.5,0,1-0.2,1.4-0.6l8.4-8.4c0.8-0.8,0.8-2,0-2.8c-0.8-0.8-2-0.8-2.8,0l-8.4,8.4
				c-0.8,0.8-0.8,2,0,2.8C407.7,108.5,408.1,108.7,408.6,108.7z"/>
			<path fill="#FFFFFF" d="M312.4,53.4c0.2,0.1,0.3,0.1,0.5,0.1c0.9,0,1.7-0.6,1.9-1.5l3-11.5c0.3-1-0.3-2.1-1.4-2.4
				c-1-0.3-2.1,0.3-2.4,1.4L311,51C310.7,52.1,311.4,53.2,312.4,53.4z"/>
			<path fill="#FFFFFF" d="M254.7,71.3c1.1,0,2-0.9,2-2V2c0-1.1-0.9-2-2-2s-2,0.9-2,2v67.3C252.8,70.4,253.6,71.3,254.7,71.3z"/>
			<path fill="#FFFFFF" d="M159.2,97.1c0.4,0.6,1,1,1.7,1c0.3,0,0.6-0.1,1-0.3c1-0.5,1.3-1.7,0.7-2.7L129,36.7
				c-0.5-1-1.7-1.3-2.7-0.7c-1,0.5-1.3,1.7-0.7,2.7L159.2,97.1z"/>
			<path fill="#FFFFFF" d="M35.7,130.7c-1-0.5-2.1-0.2-2.7,0.7c-0.5,1-0.2,2.1,0.7,2.7l37.7,21.8v-4.6L35.7,130.7z"/>
			<path fill="#FFFFFF" d="M2,262.6h67.3c1.1,0,2-0.9,2-2c0-1.1-0.9-2-2-2H2c-1.1,0-2,0.9-2,2C0,261.8,0.9,262.6,2,262.6z"/>
			<path fill="#FFFFFF" d="M167,420.6c-1-0.5-2.1-0.2-2.7,0.7l-33.7,58.3c-0.5,1-0.2,2.1,0.7,2.7c0.3,0.2,0.6,0.3,1,0.3
				c0.7,0,1.4-0.3,1.7-1l33.7-58.3C168.3,422.4,168,421.1,167,420.6z"/>
			<path fill="#FFFFFF" d="M260.7,444.1c-1.1,0-2,0.9-2,2v67.3c0,1.1,0.9,2,2,2c1.1,0,2-0.9,2-2v-67.3
				C262.6,444.9,261.8,444.1,260.7,444.1z"/>
			<path fill="#FFFFFF" d="M356.2,418.3c-0.5-1-1.7-1.3-2.7-0.7c-1,0.5-1.3,1.7-0.7,2.7l33.7,58.3c0.4,0.6,1,1,1.7,1
				c0.3,0,0.6-0.1,1-0.3c1-0.5,1.3-1.7,0.7-2.7L356.2,418.3z"/>
			<path fill="#FFFFFF" d="M423.3,347.6c-1-0.5-2.1-0.2-2.7,0.7c-0.3,0.5-0.3,1-0.2,1.5h6.7L423.3,347.6z"/>
			<path fill="#FFFFFF" d="M513.4,252.8H446c-1.1,0-2,0.9-2,2s0.9,2,2,2h67.3c1.1,0,2-0.9,2-2C515.4,253.6,514.5,252.8,513.4,252.8z
				"/>
			<path fill="#FFFFFF" d="M478.7,129c1-0.5,1.3-1.7,0.7-2.7c-0.5-1-1.7-1.3-2.7-0.7L446,143.2v4.6L478.7,129z"/>
			<path fill="#FFFFFF" d="M348.3,94.8c0.3,0.2,0.6,0.3,1,0.3c0.7,0,1.4-0.3,1.7-1l33.7-58.3c0.5-1,0.2-2.1-0.7-2.7
				c-1-0.5-2.1-0.2-2.7,0.7l-33.7,58.3C347,93,347.4,94.3,348.3,94.8z"/>
			<g>
				<path fill="#FFFFFF" d="M456.2,351.8H61.4c-1.1,0-2-0.9-2-2c0-1.1,0.9-2,2-2h394.8c1.1,0,2,0.9,2,2
					C458.2,350.9,457.3,351.8,456.2,351.8z"/>
			</g>
			<g>
				<path fill="#FFFFFF" d="M456.2,403.8H61.4c-1.1,0-2-0.9-2-2s0.9-2,2-2h394.8c1.1,0,2,0.9,2,2S457.3,403.8,456.2,403.8z"/>
			</g>
			<g>
				<g>
					<path fill="#39B564" d="M198.4,373.9c0,10.2-8.1,18-19,18c-10.8,0-18.9-7.7-18.9-18c0-10.2,8.1-17.8,18.9-17.8
						C190.3,356,198.4,363.7,198.4,373.9z M169.6,373.9c0,5.9,4.5,10.5,9.9,10.5c5.4,0,9.7-4.5,9.7-10.5c0-5.9-4.3-10.4-9.7-10.4
						C174.1,363.5,169.6,368,169.6,373.9z"/>
					<path fill="#39B564" d="M227.6,391.4l-16.1-21.6v21.6h-8.4v-35.1h7.8l16.2,21.6v-21.6h8.3v35.1H227.6z"/>
					<path fill="#39B564" d="M266.3,384v7.4h-23.8v-35.1h8.9V384H266.3z"/>
					<path fill="#39B564" d="M270.5,391.4v-35.1h8.9v35.1H270.5z"/>
					<path fill="#39B564" d="M311,391.4l-16.1-21.6v21.6h-8.4v-35.1h7.8l16.2,21.6v-21.6h8.3v35.1H311z"/>
					<path fill="#39B564" d="M334.7,363.4v7h16.7v7h-16.7v7.1h19.1v7h-28v-35.1h27.5v7L334.7,363.4L334.7,363.4z"/>
				</g>
			</g>
		</g>
	</g>
</g>
</svg>
